<svg width="1024" height="1024" viewBox="0 0 1024 1024" fill="none" xmlns="http://www.w3.org/2000/svg">
  <defs>
    <linearGradient id="accent" x1="374" y1="286" x2="666" y2="778" gradientUnits="userSpaceOnUse">
      <stop stop-color="#FF9B54"/>
      <stop offset="1" stop-color="#FF6B35"/>
    </linearGradient>
    <linearGradient id="badge" x1="650" y1="660" x2="804" y2="826" gradientUnits="userSpaceOnUse">
      <stop stop-color="#FFB163"/>
      <stop offset="1" stop-color="#FF7A2F"/>
    </linearGradient>
  </defs>

  <rect x="190" y="176" width="644" height="672" rx="156" fill="#FFF5F5"/>
  <rect x="190" y="176" width="644" height="672" rx="156" stroke="#FFD7D7" stroke-width="14"/>

  <path d="M190 312C190 235.784 251.784 174 328 174H696C772.216 174 834 235.784 834 312V350H190V312Z" fill="#F8D2D2"/>
  <rect x="278" y="244" width="140" height="42" rx="21" fill="#EA2027" fill-opacity="0.16"/>
  <rect x="442" y="244" width="114" height="42" rx="21" fill="#EA2027" fill-opacity="0.16"/>
  <rect x="580" y="244" width="166" height="42" rx="21" fill="#EA2027" fill-opacity="0.16"/>

  <rect x="286" y="426" width="452" height="252" rx="86" fill="#FFFFFF"/>
  <rect x="286" y="426" width="452" height="252" rx="86" stroke="#F7DDDD" stroke-width="10"/>
  <path d="M434 486L348 552L434 618" stroke="#EA2027" stroke-width="48" stroke-linecap="round" stroke-linejoin="round"/>
  <path d="M590 486L676 552L590 618" stroke="#EA2027" stroke-width="48" stroke-linecap="round" stroke-linejoin="round"/>
  <path d="M552 456L476 648" stroke="url(#accent)" stroke-width="48" stroke-linecap="round"/>

  <rect x="278" y="738" width="180" height="30" rx="15" fill="#FFD3D3"/>
  <rect x="486" y="738" width="120" height="30" rx="15" fill="url(#accent)"/>
  <rect x="634" y="738" width="112" height="30" rx="15" fill="#FFD3D3"/>

  <circle cx="710" cy="692" r="94" fill="url(#badge)"/>
  <circle cx="710" cy="692" r="85" stroke="#FFE0C7" stroke-width="10"/>
  <path d="M668 694L698 724L754 662" stroke="#FFFFFF" stroke-width="34" stroke-linecap="round" stroke-linejoin="round"/>
</svg>
