<svg width="1024" height="1024" viewBox="0 0 1024 1024" fill="none" xmlns="http://www.w3.org/2000/svg">
  <defs>
    <linearGradient id="card" x1="228" y1="208" x2="756" y2="792" gradientUnits="userSpaceOnUse">
      <stop stop-color="#FFF9F0"/>
      <stop offset="1" stop-color="#F3EBDC"/>
    </linearGradient>
    <linearGradient id="html" x1="326" y1="356" x2="620" y2="760" gradientUnits="userSpaceOnUse">
      <stop stop-color="#FF7A18"/>
      <stop offset="1" stop-color="#F04D23"/>
    </linearGradient>
    <linearGradient id="js" x1="610" y1="246" x2="800" y2="470" gradientUnits="userSpaceOnUse">
      <stop stop-color="#FFE66D"/>
      <stop offset="1" stop-color="#F7C948"/>
    </linearGradient>
  </defs>

  <rect x="198" y="252" width="628" height="520" rx="134" fill="url(#card)"/>
  <rect x="198" y="252" width="628" height="520" rx="134" stroke="#E5D8C0" stroke-width="12"/>

  <circle cx="286" cy="326" r="18" fill="#FF7A18"/>
  <circle cx="338" cy="326" r="18" fill="#FFD166"/>
  <circle cx="390" cy="326" r="18" fill="#7BD389"/>

  <path d="M406 418L314 522L406 626" stroke="url(#html)" stroke-width="58" stroke-linecap="round" stroke-linejoin="round"/>
  <path d="M626 418L718 522L626 626" stroke="#172033" stroke-width="58" stroke-linecap="round" stroke-linejoin="round"/>
  <path d="M560 382L478 664" stroke="url(#html)" stroke-width="56" stroke-linecap="round"/>

  <g transform="translate(598 230)">
    <rect x="0" y="0" width="186" height="136" rx="42" fill="url(#js)"/>
    <rect x="0" y="0" width="186" height="136" rx="42" stroke="#F4D03F" stroke-width="8"/>
    <path d="M74 40V80C74 104 61 118 36 118" stroke="#1A1A1A" stroke-width="18" stroke-linecap="round"/>
    <path d="M115 95C120 107 130 115 146 115C163 115 174 107 174 95C174 82 164 76 149 71L137 67C120 61 110 52 110 36C110 18 123 6 144 6C160 6 173 13 181 27" stroke="#1A1A1A" stroke-width="16" stroke-linecap="round"/>
  </g>

  <rect x="270" y="694" width="214" height="28" rx="14" fill="#D9C4AA"/>
  <rect x="504" y="694" width="154" height="28" rx="14" fill="#FF7A18"/>
  <rect x="678" y="694" width="92" height="28" rx="14" fill="#F7C948"/>
</svg>
