<svg width="1024" height="1024" viewBox="0 0 1024 1024" fill="none" xmlns="http://www.w3.org/2000/svg">
  <defs>
    <linearGradient id="bg" x1="160" y1="120" x2="876" y2="916" gradientUnits="userSpaceOnUse">
      <stop stop-color="#182338"/>
      <stop offset="1" stop-color="#0B1220"/>
    </linearGradient>
    <linearGradient id="html" x1="272" y1="328" x2="604" y2="780" gradientUnits="userSpaceOnUse">
      <stop stop-color="#FF7A18"/>
      <stop offset="1" stop-color="#F04D23"/>
    </linearGradient>
    <linearGradient id="js" x1="582" y1="274" x2="792" y2="518" gradientUnits="userSpaceOnUse">
      <stop stop-color="#FFE66D"/>
      <stop offset="1" stop-color="#F7C948"/>
    </linearGradient>
  </defs>

  <rect x="72" y="72" width="880" height="880" rx="220" fill="url(#bg)"/>
  <rect x="104" y="104" width="816" height="816" rx="188" stroke="#24324A" stroke-width="10"/>

  <circle cx="268" cy="236" r="18" fill="#FF7A18" fill-opacity="0.95"/>
  <circle cx="320" cy="236" r="18" fill="#FFD166" fill-opacity="0.92"/>
  <circle cx="372" cy="236" r="18" fill="#7BD389" fill-opacity="0.9"/>

  <rect x="188" y="296" width="648" height="468" rx="124" fill="#F7F5EF"/>
  <rect x="188" y="296" width="648" height="468" rx="124" stroke="#E6DFD2" stroke-width="10"/>

  <path d="M396 422L298 530L396 638" stroke="url(#html)" stroke-width="56" stroke-linecap="round" stroke-linejoin="round"/>
  <path d="M628 422L726 530L628 638" stroke="#1F2937" stroke-width="56" stroke-linecap="round" stroke-linejoin="round"/>
  <path d="M566 384L480 676" stroke="url(#html)" stroke-width="54" stroke-linecap="round"/>

  <g transform="translate(602 246)">
    <rect x="0" y="0" width="180" height="132" rx="42" fill="url(#js)"/>
    <rect x="0" y="0" width="180" height="132" rx="42" stroke="#F4D03F" stroke-width="8"/>
    <path d="M69 36V74C69 96 58 108 34 108" stroke="#1A1A1A" stroke-width="18" stroke-linecap="round"/>
    <path d="M112 92C116 101 124 108 142 108C160 108 170 100 170 87C170 74 161 68 146 63L135 59C119 53 108 45 108 29C108 12 122 0 144 0C163 0 176 7 184 24" stroke="#1A1A1A" stroke-width="16" stroke-linecap="round"/>
  </g>

  <rect x="256" y="806" width="210" height="28" rx="14" fill="#2A3A54"/>
  <rect x="486" y="806" width="152" height="28" rx="14" fill="#FF7A18"/>
  <rect x="658" y="806" width="110" height="28" rx="14" fill="#F7C948"/>
</svg>
